<svg version="1" xmlns="http://www.w3.org/2000/svg" width="170.667" height="170.667" viewBox="0 0 128.000000 128.000000"><path d="M61.5 41.8c-.9.6-1.1 3-.6 9.4.2 2.7 11.6 2.5 15.1-.2 2.9-2.2 10.9-2.7 12.8-.8.8.8 1.2 6.4 1.2 18.4 0 19 .2 18.4-6.6 18.4-3.2 0-3.7-.4-5.5-4.5-1.8-4.1-4-5.7-5.3-3.7-.8 1.3 4 10.8 5.9 11.5.9.4 3.8.7 6.4.7 3.7 0 5.2-.5 7-2.4 2.2-2.3 2.3-3.1 2.3-20.6s0-18.2-2.3-20.6c-1.9-2-3.2-2.4-8.4-2.4-4.7 0-6.9.5-8.8 2-1.5 1.2-4 2-6.5 2-3.6 0-3.9-.2-3.6-2.6.4-4.4-.8-6.3-3.1-4.6zM34.4 46.3l-2.9 2.5-.1 18.2c-.2 17.2 0 18.3 2 20.6 1.5 1.9 3.3 2.6 6.6 2.8 6.5.5 9.2-1.3 11.9-7.8 2.4-6 3.5-6.6 10.6-6.8 3.1 0 4.8-.5 5.2-1.5.8-2.1-1.1-3-6.2-2.7-8.4.4-11.2 2.4-13.6 9.7-1.5 4.5-2.1 5-6.6 5.2-5.6.3-6.2-1.6-6-20.3.2-13.2.5-16.5 1.7-17.2 2.5-1.7 9.3-.8 12.9 1.6 5.7 3.8 7.4.5 1.9-3.6-2.3-1.7-5-2.5-8.9-2.8-4.8-.4-5.9-.1-8.5 2.1z"/><path d="M45.7 56.6c-.4.4-.7 1.6-.7 2.7s-.3 1.7-.6 1.4c-.4-.3-1.5-.2-2.6.4-1.5.8-1.7 1.3-.7 2.5.6.8 1.8 1.4 2.5 1.4.8 0 1.4.9 1.4 2 0 1.3.7 2 2 2s2-.7 2-1.9.9-2.1 2.5-2.5c2.2-.6 2.4-.9 1.5-2.6-.6-1.1-1.7-1.7-2.4-1.4-.9.4-1.6-.2-1.8-1.7-.3-2.3-1.9-3.5-3.1-2.3zM75 58c-4.3 4.3-1.4 11 4.8 11 5.6 0 8.2-7 4.2-11-1.1-1.1-3.1-2-4.5-2s-3.4.9-4.5 2zm5.9 2.9c1.7 1.1.7 4.1-1.3 4.1-1.9 0-2.9-1.7-2.2-3.5.6-1.7 1.5-1.8 3.5-.6z"/></svg>